<svg xmlns="http://www.w3.org/2000/svg" xmlns:svg="http://www.w3.org/2000/svg" id="svg74" width="38" height="38" version="1.1" viewBox="0 0 38 38"><metadata id="metadata78"/><desc id="desc66"/><g id="add-alarm" transform="matrix(1.7889109,0,0,1.7889109,1.1108874,1.2897821)" style="display:inline;fill:#ff613d;fill-opacity:1;fill-rule:evenodd;stroke:none;stroke-width:1"><path style="display:inline;fill:red;fill-opacity:1;stroke-width:1.78891087" id="path4625" d="M 28.660156,0.93164062 26.333984,3.6152344 34.564453,10.591797 36.888672,7.9082031 Z M 9.3398438,1.1113281 1.1113281,7.9082031 3.4355469,10.591797 11.666016,3.7949219 Z M 19,4.8671875 c -8.944555,0 -16.0996094,7.1570085 -16.0996094,16.1015625 0,8.944554 7.1550554,16.099609 16.0996094,16.099609 8.944554,0 16.099609,-7.155055 16.099609,-16.099609 C 35.099609,12.024195 27.944554,4.8671875 19,4.8671875 Z m 0,3.578125 c 6.976753,0 12.521484,5.5466845 12.521484,12.5234375 0,6.976753 -5.544731,12.521484 -12.521484,12.521484 -6.976753,0 -12.5214844,-5.544731 -12.5214844,-12.521484 C 6.4785156,13.991997 12.023247,8.4453125 19,8.4453125 Z M 17.210938,11.8125 v 12.310547 h 3.578124 V 11.8125 Z m 0,15.033203 v 3.277344 h 3.578124 v -3.277344 z" transform="matrix(0.55899933,0,0,0.55899933,-0.62098532,-0.72098733)"/></g></svg>