<svg xmlns="http://www.w3.org/2000/svg" xmlns:svg="http://www.w3.org/2000/svg" id="svg74" width="16" height="16" version="1.1" viewBox="0 0 16 16"><metadata id="metadata78"/><desc id="desc66"/><g id="Page-1" transform="matrix(0.76793227,0,0,0.76793227,0.32067731,-0.37046178)" style="fill:#fff;fill-opacity:.94117647;fill-rule:evenodd;stroke:none;stroke-width:1"><g id="Icons-Device" transform="translate(-86,1)" style="fill:#fff;fill-opacity:.94117647"><g id="add-alarm" transform="translate(86)" style="fill:#fff;fill-opacity:.94117647"><path id="Shape" d="m 10,0.22301009 c -5.3761057,0 -9.67699003,4.30088431 -9.67699003,9.67698981 0,5.3761061 4.30088433,9.6769901 9.67699003,9.6769901 5.376105,0 9.67699,-4.300884 9.67699,-9.6769901 C 19.67699,4.5238944 15.376105,0.22301009 10,0.22301009 Z M 10,17.426548 c -4.1933625,0 -7.5265479,-3.333186 -7.5265479,-7.5265481 0,-4.1933622 3.3331854,-7.5265477 7.5265479,-7.5265477 4.193362,0 7.526548,3.3331855 7.526548,7.5265477 0,4.1933621 -3.333186,7.5265481 -7.526548,7.5265481 z M 11.075221,5.5991156 H 8.9247787 V 8.8247789 H 5.6991154 v 2.1504421 h 3.2256633 v 3.225663 h 2.1504423 v -3.225663 h 3.225663 V 8.8247789 h -3.225663 z" style="fill:#fff;fill-opacity:.94117647;stroke-width:1.07522106"/></g></g></g></svg>