<svg xmlns="http://www.w3.org/2000/svg" xmlns:svg="http://www.w3.org/2000/svg" id="svg74" width="19" height="19" version="1.1" viewBox="0 0 19 19"><metadata id="metadata78"/><desc id="desc66"/><path style="display:inline;fill:red;fill-opacity:1;fill-rule:evenodd;stroke:none;stroke-width:.91332924" id="path4625" d="M 14.431997,0.28850865 13.24437,1.6586192 17.44644,5.2205076 18.633071,3.8503972 Z M 4.5680026,0.38025257 0.3669299,3.8504026 1.553561,5.220513 5.7556309,1.7503631 Z M 9.5,2.297811 c -4.5666469,0 -8.2196634,3.6540134 -8.2196634,8.220659 0,4.566646 3.6530171,8.219665 8.2196634,8.219665 4.566647,0 8.219664,-3.653019 8.219664,-8.219665 0,-4.5666467 -3.653017,-8.220659 -8.219664,-8.220659 z m 0,1.8268124 c 3.561986,0 6.392851,2.8318619 6.392851,6.3938466 0,3.561985 -2.830865,6.392849 -6.392851,6.392849 -3.5619846,0 -6.3928499,-2.830864 -6.3928499,-6.392849 0,-3.5619847 2.8308653,-6.3938466 6.3928499,-6.3938466 z M 8.586594,5.8437417 v 6.2851553 h 1.826814 V 5.8437417 Z m 0,7.6752103 v 1.673249 h 1.826814 v -1.673249 z"/></svg>