<svg xmlns="http://www.w3.org/2000/svg" xmlns:svg="http://www.w3.org/2000/svg" id="svg74" width="36" height="36" version="1.1" viewBox="0 0 36 36"><metadata id="metadata78"/><desc id="desc66"/><g id="Page-1" transform="matrix(1.6578081,0,0,1.6578081,1.421919,-0.07010829)" style="fill:none;fill-rule:evenodd;stroke:none;stroke-width:1"><g id="Icons-Device" transform="translate(-86,1)" style="fill:#000"><g id="add-alarm" transform="translate(86)"><path id="Shape" d="M 5.9,1.4 4.6,-0.1 0,3.7 1.3,5.2 Z M 20,3.7 15.4,-0.2 14.1,1.3 18.7,5.2 Z M 10,2 c -5,0 -9,4 -9,9 0,5 4,9 9,9 5,0 9,-4 9,-9 0,-5 -4,-9 -9,-9 z m 0,16 C 6.1,18 3,14.9 3,11 3,7.1 6.1,4 10,4 c 3.9,0 7,3.1 7,7 0,3.9 -3.1,7 -7,7 z M 11,7 H 9 v 3 H 6 v 2 h 3 v 3 h 2 v -3 h 3 v -2 h -3 z"/></g></g></g></svg>